<mxfile host="app.diagrams.net" modified="2024-05-28T19:18:27.154Z" agent="Mozilla/5.0 (Windows NT 10.0; Win64; x64) AppleWebKit/537.36 (KHTML, like Gecko) Chrome/125.0.0.0 Safari/537.36" etag="-GnVYPUXsoOIhfaPTh7u" version="24.4.9" type="device">
  <diagram name="Strona-1" id="1CVQDl4Ty0HofQXNn9Ef">
    <mxGraphModel dx="1702" dy="544" grid="1" gridSize="10" guides="1" tooltips="1" connect="1" arrows="1" fold="1" page="1" pageScale="1" pageWidth="827" pageHeight="1169" math="0" shadow="0">
      <root>
        <mxCell id="0" />
        <mxCell id="1" parent="0" />
        <mxCell id="LnNG55XfxZ_beVGy9GOJ-1" value="Zarządzanie uczestnikiem" style="text;html=1;align=center;verticalAlign=middle;resizable=0;points=[];autosize=1;strokeColor=none;fillColor=none;" vertex="1" parent="1">
          <mxGeometry x="10" y="68" width="160" height="30" as="geometry" />
        </mxCell>
        <mxCell id="LnNG55XfxZ_beVGy9GOJ-9" value="" style="edgeStyle=orthogonalEdgeStyle;rounded=0;orthogonalLoop=1;jettySize=auto;html=1;" edge="1" parent="1" source="LnNG55XfxZ_beVGy9GOJ-2" target="LnNG55XfxZ_beVGy9GOJ-8">
          <mxGeometry relative="1" as="geometry" />
        </mxCell>
        <mxCell id="LnNG55XfxZ_beVGy9GOJ-2" value="System wyświetla panel administracyjny" style="rounded=1;whiteSpace=wrap;html=1;" vertex="1" parent="1">
          <mxGeometry x="205" y="210" width="120" height="60" as="geometry" />
        </mxCell>
        <mxCell id="LnNG55XfxZ_beVGy9GOJ-6" value="" style="edgeStyle=orthogonalEdgeStyle;rounded=0;orthogonalLoop=1;jettySize=auto;html=1;" edge="1" parent="1" source="LnNG55XfxZ_beVGy9GOJ-4" target="LnNG55XfxZ_beVGy9GOJ-2">
          <mxGeometry relative="1" as="geometry" />
        </mxCell>
        <mxCell id="LnNG55XfxZ_beVGy9GOJ-4" value="" style="ellipse;whiteSpace=wrap;html=1;aspect=fixed;" vertex="1" parent="1">
          <mxGeometry x="250" y="140" width="30" height="30" as="geometry" />
        </mxCell>
        <mxCell id="LnNG55XfxZ_beVGy9GOJ-5" value="Start" style="text;html=1;align=center;verticalAlign=middle;resizable=0;points=[];autosize=1;strokeColor=none;fillColor=none;" vertex="1" parent="1">
          <mxGeometry x="290" y="140" width="50" height="30" as="geometry" />
        </mxCell>
        <mxCell id="LnNG55XfxZ_beVGy9GOJ-13" value="" style="edgeStyle=orthogonalEdgeStyle;rounded=0;orthogonalLoop=1;jettySize=auto;html=1;" edge="1" parent="1" source="LnNG55XfxZ_beVGy9GOJ-7" target="LnNG55XfxZ_beVGy9GOJ-12">
          <mxGeometry relative="1" as="geometry" />
        </mxCell>
        <mxCell id="LnNG55XfxZ_beVGy9GOJ-7" value="System wyświetla okno zarządzania uczestnikami" style="rounded=1;whiteSpace=wrap;html=1;" vertex="1" parent="1">
          <mxGeometry x="205" y="390" width="120" height="60" as="geometry" />
        </mxCell>
        <mxCell id="LnNG55XfxZ_beVGy9GOJ-11" value="" style="edgeStyle=orthogonalEdgeStyle;rounded=0;orthogonalLoop=1;jettySize=auto;html=1;" edge="1" parent="1" source="LnNG55XfxZ_beVGy9GOJ-8" target="LnNG55XfxZ_beVGy9GOJ-7">
          <mxGeometry relative="1" as="geometry" />
        </mxCell>
        <mxCell id="LnNG55XfxZ_beVGy9GOJ-8" value="Osoba z sekretariatu wybiera opcję &quot;zarządzanie uczestnikami&quot;" style="rounded=1;whiteSpace=wrap;html=1;" vertex="1" parent="1">
          <mxGeometry x="205" y="300" width="120" height="60" as="geometry" />
        </mxCell>
        <mxCell id="LnNG55XfxZ_beVGy9GOJ-16" value="" style="edgeStyle=orthogonalEdgeStyle;rounded=0;orthogonalLoop=1;jettySize=auto;html=1;" edge="1" parent="1" source="LnNG55XfxZ_beVGy9GOJ-12" target="LnNG55XfxZ_beVGy9GOJ-15">
          <mxGeometry relative="1" as="geometry" />
        </mxCell>
        <mxCell id="LnNG55XfxZ_beVGy9GOJ-53" style="edgeStyle=orthogonalEdgeStyle;rounded=0;orthogonalLoop=1;jettySize=auto;html=1;entryX=0;entryY=0.5;entryDx=0;entryDy=0;" edge="1" parent="1" source="LnNG55XfxZ_beVGy9GOJ-12" target="LnNG55XfxZ_beVGy9GOJ-52">
          <mxGeometry relative="1" as="geometry" />
        </mxCell>
        <mxCell id="LnNG55XfxZ_beVGy9GOJ-68" style="edgeStyle=orthogonalEdgeStyle;rounded=0;orthogonalLoop=1;jettySize=auto;html=1;" edge="1" parent="1" source="LnNG55XfxZ_beVGy9GOJ-12" target="LnNG55XfxZ_beVGy9GOJ-65">
          <mxGeometry relative="1" as="geometry" />
        </mxCell>
        <mxCell id="LnNG55XfxZ_beVGy9GOJ-12" value="" style="rhombus;whiteSpace=wrap;html=1;" vertex="1" parent="1">
          <mxGeometry x="250" y="480" width="30" height="30" as="geometry" />
        </mxCell>
        <mxCell id="LnNG55XfxZ_beVGy9GOJ-14" value="Alternatywa" style="text;html=1;align=center;verticalAlign=middle;resizable=0;points=[];autosize=1;strokeColor=none;fillColor=none;" vertex="1" parent="1">
          <mxGeometry x="270" y="460" width="90" height="30" as="geometry" />
        </mxCell>
        <mxCell id="LnNG55XfxZ_beVGy9GOJ-20" value="" style="edgeStyle=orthogonalEdgeStyle;rounded=0;orthogonalLoop=1;jettySize=auto;html=1;" edge="1" parent="1" source="LnNG55XfxZ_beVGy9GOJ-15" target="LnNG55XfxZ_beVGy9GOJ-17">
          <mxGeometry relative="1" as="geometry" />
        </mxCell>
        <mxCell id="LnNG55XfxZ_beVGy9GOJ-15" value="Osoba z sekretariatu wybiera opcję &quot;Edytuj uczestnika&quot;" style="rounded=1;whiteSpace=wrap;html=1;" vertex="1" parent="1">
          <mxGeometry x="205" y="540" width="120" height="60" as="geometry" />
        </mxCell>
        <mxCell id="LnNG55XfxZ_beVGy9GOJ-21" value="" style="edgeStyle=orthogonalEdgeStyle;rounded=0;orthogonalLoop=1;jettySize=auto;html=1;" edge="1" parent="1" source="LnNG55XfxZ_beVGy9GOJ-17" target="LnNG55XfxZ_beVGy9GOJ-19">
          <mxGeometry relative="1" as="geometry" />
        </mxCell>
        <mxCell id="LnNG55XfxZ_beVGy9GOJ-17" value="System wyświetla okno listę uczestników" style="rounded=1;whiteSpace=wrap;html=1;" vertex="1" parent="1">
          <mxGeometry x="205" y="640" width="120" height="60" as="geometry" />
        </mxCell>
        <mxCell id="LnNG55XfxZ_beVGy9GOJ-34" value="" style="edgeStyle=orthogonalEdgeStyle;rounded=0;orthogonalLoop=1;jettySize=auto;html=1;" edge="1" parent="1" source="LnNG55XfxZ_beVGy9GOJ-18" target="LnNG55XfxZ_beVGy9GOJ-33">
          <mxGeometry relative="1" as="geometry" />
        </mxCell>
        <mxCell id="LnNG55XfxZ_beVGy9GOJ-18" value="Osoba z sekretariatu zatwierdza zmiany" style="rounded=1;whiteSpace=wrap;html=1;" vertex="1" parent="1">
          <mxGeometry x="205" y="1060" width="120" height="60" as="geometry" />
        </mxCell>
        <mxCell id="LnNG55XfxZ_beVGy9GOJ-24" value="" style="edgeStyle=orthogonalEdgeStyle;rounded=0;orthogonalLoop=1;jettySize=auto;html=1;" edge="1" parent="1" source="LnNG55XfxZ_beVGy9GOJ-19" target="LnNG55XfxZ_beVGy9GOJ-23">
          <mxGeometry relative="1" as="geometry" />
        </mxCell>
        <mxCell id="LnNG55XfxZ_beVGy9GOJ-19" value="Osoba z sekretariatu wybiera danego uczestnika" style="rounded=1;whiteSpace=wrap;html=1;" vertex="1" parent="1">
          <mxGeometry x="205" y="730" width="120" height="60" as="geometry" />
        </mxCell>
        <mxCell id="LnNG55XfxZ_beVGy9GOJ-28" value="" style="edgeStyle=orthogonalEdgeStyle;rounded=0;orthogonalLoop=1;jettySize=auto;html=1;" edge="1" parent="1" source="LnNG55XfxZ_beVGy9GOJ-22" target="LnNG55XfxZ_beVGy9GOJ-27">
          <mxGeometry relative="1" as="geometry" />
        </mxCell>
        <mxCell id="LnNG55XfxZ_beVGy9GOJ-22" value="Osoba z sekretariatu wprowadza zmiany" style="rounded=1;whiteSpace=wrap;html=1;" vertex="1" parent="1">
          <mxGeometry x="205" y="910" width="120" height="60" as="geometry" />
        </mxCell>
        <mxCell id="LnNG55XfxZ_beVGy9GOJ-26" value="" style="edgeStyle=orthogonalEdgeStyle;rounded=0;orthogonalLoop=1;jettySize=auto;html=1;" edge="1" parent="1" source="LnNG55XfxZ_beVGy9GOJ-23" target="LnNG55XfxZ_beVGy9GOJ-22">
          <mxGeometry relative="1" as="geometry" />
        </mxCell>
        <mxCell id="LnNG55XfxZ_beVGy9GOJ-23" value="System wyświetla okno z danymi uczestnika" style="rounded=1;whiteSpace=wrap;html=1;" vertex="1" parent="1">
          <mxGeometry x="205" y="820" width="120" height="60" as="geometry" />
        </mxCell>
        <mxCell id="LnNG55XfxZ_beVGy9GOJ-32" value="" style="edgeStyle=orthogonalEdgeStyle;rounded=0;orthogonalLoop=1;jettySize=auto;html=1;" edge="1" parent="1" source="LnNG55XfxZ_beVGy9GOJ-27" target="LnNG55XfxZ_beVGy9GOJ-18">
          <mxGeometry relative="1" as="geometry" />
        </mxCell>
        <mxCell id="LnNG55XfxZ_beVGy9GOJ-49" value="" style="edgeStyle=orthogonalEdgeStyle;rounded=0;orthogonalLoop=1;jettySize=auto;html=1;" edge="1" parent="1" source="LnNG55XfxZ_beVGy9GOJ-27" target="LnNG55XfxZ_beVGy9GOJ-48">
          <mxGeometry relative="1" as="geometry" />
        </mxCell>
        <mxCell id="LnNG55XfxZ_beVGy9GOJ-27" value="" style="rhombus;whiteSpace=wrap;html=1;" vertex="1" parent="1">
          <mxGeometry x="250" y="1000" width="30" height="30" as="geometry" />
        </mxCell>
        <mxCell id="LnNG55XfxZ_beVGy9GOJ-29" value="Wyjątek" style="text;html=1;align=center;verticalAlign=middle;resizable=0;points=[];autosize=1;strokeColor=none;fillColor=none;" vertex="1" parent="1">
          <mxGeometry x="270" y="980" width="70" height="30" as="geometry" />
        </mxCell>
        <mxCell id="LnNG55XfxZ_beVGy9GOJ-43" value="" style="edgeStyle=orthogonalEdgeStyle;rounded=0;orthogonalLoop=1;jettySize=auto;html=1;" edge="1" parent="1" source="LnNG55XfxZ_beVGy9GOJ-30" target="LnNG55XfxZ_beVGy9GOJ-42">
          <mxGeometry relative="1" as="geometry" />
        </mxCell>
        <mxCell id="LnNG55XfxZ_beVGy9GOJ-30" value="Osoba z sekretariatu wychodzi z sekcji zarządzania uczestnikami" style="rounded=1;whiteSpace=wrap;html=1;" vertex="1" parent="1">
          <mxGeometry x="205" y="1470" width="120" height="60" as="geometry" />
        </mxCell>
        <mxCell id="LnNG55XfxZ_beVGy9GOJ-39" value="" style="edgeStyle=orthogonalEdgeStyle;rounded=0;orthogonalLoop=1;jettySize=auto;html=1;" edge="1" parent="1" source="LnNG55XfxZ_beVGy9GOJ-31" target="LnNG55XfxZ_beVGy9GOJ-38">
          <mxGeometry relative="1" as="geometry" />
        </mxCell>
        <mxCell id="LnNG55XfxZ_beVGy9GOJ-31" value="System zapisuje zmiany" style="rounded=1;whiteSpace=wrap;html=1;" vertex="1" parent="1">
          <mxGeometry x="205" y="1200" width="120" height="60" as="geometry" />
        </mxCell>
        <mxCell id="LnNG55XfxZ_beVGy9GOJ-36" value="" style="edgeStyle=orthogonalEdgeStyle;rounded=0;orthogonalLoop=1;jettySize=auto;html=1;" edge="1" parent="1" source="LnNG55XfxZ_beVGy9GOJ-33" target="LnNG55XfxZ_beVGy9GOJ-31">
          <mxGeometry relative="1" as="geometry" />
        </mxCell>
        <mxCell id="LnNG55XfxZ_beVGy9GOJ-46" value="" style="edgeStyle=orthogonalEdgeStyle;rounded=0;orthogonalLoop=1;jettySize=auto;html=1;" edge="1" parent="1" source="LnNG55XfxZ_beVGy9GOJ-33" target="LnNG55XfxZ_beVGy9GOJ-45">
          <mxGeometry relative="1" as="geometry" />
        </mxCell>
        <mxCell id="LnNG55XfxZ_beVGy9GOJ-33" value="" style="rhombus;whiteSpace=wrap;html=1;" vertex="1" parent="1">
          <mxGeometry x="250" y="1150" width="30" height="30" as="geometry" />
        </mxCell>
        <mxCell id="LnNG55XfxZ_beVGy9GOJ-35" value="Wyjątek" style="text;html=1;align=center;verticalAlign=middle;resizable=0;points=[];autosize=1;strokeColor=none;fillColor=none;" vertex="1" parent="1">
          <mxGeometry x="270" y="1128" width="70" height="30" as="geometry" />
        </mxCell>
        <mxCell id="LnNG55XfxZ_beVGy9GOJ-41" value="" style="edgeStyle=orthogonalEdgeStyle;rounded=0;orthogonalLoop=1;jettySize=auto;html=1;" edge="1" parent="1" source="LnNG55XfxZ_beVGy9GOJ-37" target="LnNG55XfxZ_beVGy9GOJ-30">
          <mxGeometry relative="1" as="geometry" />
        </mxCell>
        <mxCell id="LnNG55XfxZ_beVGy9GOJ-37" value="Osoba z sekretariatu przegląda informację o uczestnikach" style="rounded=1;whiteSpace=wrap;html=1;" vertex="1" parent="1">
          <mxGeometry x="205" y="1380" width="120" height="60" as="geometry" />
        </mxCell>
        <mxCell id="LnNG55XfxZ_beVGy9GOJ-40" value="" style="edgeStyle=orthogonalEdgeStyle;rounded=0;orthogonalLoop=1;jettySize=auto;html=1;" edge="1" parent="1" source="LnNG55XfxZ_beVGy9GOJ-38" target="LnNG55XfxZ_beVGy9GOJ-37">
          <mxGeometry relative="1" as="geometry" />
        </mxCell>
        <mxCell id="LnNG55XfxZ_beVGy9GOJ-38" value="System aktualizuje bazę danych uczestników" style="rounded=1;whiteSpace=wrap;html=1;" vertex="1" parent="1">
          <mxGeometry x="205" y="1290" width="120" height="60" as="geometry" />
        </mxCell>
        <mxCell id="LnNG55XfxZ_beVGy9GOJ-42" value="" style="ellipse;whiteSpace=wrap;html=1;aspect=fixed;" vertex="1" parent="1">
          <mxGeometry x="250" y="1560" width="30" height="30" as="geometry" />
        </mxCell>
        <mxCell id="LnNG55XfxZ_beVGy9GOJ-44" value="End" style="text;html=1;align=center;verticalAlign=middle;resizable=0;points=[];autosize=1;strokeColor=none;fillColor=none;" vertex="1" parent="1">
          <mxGeometry x="295" y="1560" width="40" height="30" as="geometry" />
        </mxCell>
        <mxCell id="LnNG55XfxZ_beVGy9GOJ-47" style="edgeStyle=orthogonalEdgeStyle;rounded=0;orthogonalLoop=1;jettySize=auto;html=1;" edge="1" parent="1" source="LnNG55XfxZ_beVGy9GOJ-45" target="LnNG55XfxZ_beVGy9GOJ-18">
          <mxGeometry relative="1" as="geometry">
            <Array as="points">
              <mxPoint x="455" y="1090" />
            </Array>
          </mxGeometry>
        </mxCell>
        <mxCell id="LnNG55XfxZ_beVGy9GOJ-45" value="System zwraca błąd zapisu, prosi o ponowienie operacji, w razie potrzeby potrzebna będzie pomoc personelu technicznego" style="rounded=1;whiteSpace=wrap;html=1;" vertex="1" parent="1">
          <mxGeometry x="390" y="1112.5" width="130" height="105" as="geometry" />
        </mxCell>
        <mxCell id="LnNG55XfxZ_beVGy9GOJ-51" style="edgeStyle=orthogonalEdgeStyle;rounded=0;orthogonalLoop=1;jettySize=auto;html=1;entryX=1;entryY=0.5;entryDx=0;entryDy=0;" edge="1" parent="1" source="LnNG55XfxZ_beVGy9GOJ-48" target="LnNG55XfxZ_beVGy9GOJ-17">
          <mxGeometry relative="1" as="geometry">
            <Array as="points">
              <mxPoint x="450" y="670" />
            </Array>
          </mxGeometry>
        </mxCell>
        <mxCell id="LnNG55XfxZ_beVGy9GOJ-48" value="Osoba z sekretariatu anuluje operację" style="rounded=1;whiteSpace=wrap;html=1;" vertex="1" parent="1">
          <mxGeometry x="395" y="985" width="120" height="60" as="geometry" />
        </mxCell>
        <mxCell id="LnNG55XfxZ_beVGy9GOJ-57" value="" style="edgeStyle=orthogonalEdgeStyle;rounded=0;orthogonalLoop=1;jettySize=auto;html=1;" edge="1" parent="1" source="LnNG55XfxZ_beVGy9GOJ-52" target="LnNG55XfxZ_beVGy9GOJ-56">
          <mxGeometry relative="1" as="geometry" />
        </mxCell>
        <mxCell id="LnNG55XfxZ_beVGy9GOJ-52" value="Osoba z sekretariatu wybiera opcję &quot;Dodaj uczestnika&quot;" style="rounded=1;whiteSpace=wrap;html=1;" vertex="1" parent="1">
          <mxGeometry x="600" y="465" width="120" height="60" as="geometry" />
        </mxCell>
        <mxCell id="LnNG55XfxZ_beVGy9GOJ-61" value="" style="edgeStyle=orthogonalEdgeStyle;rounded=0;orthogonalLoop=1;jettySize=auto;html=1;" edge="1" parent="1" source="LnNG55XfxZ_beVGy9GOJ-54" target="LnNG55XfxZ_beVGy9GOJ-60">
          <mxGeometry relative="1" as="geometry" />
        </mxCell>
        <mxCell id="LnNG55XfxZ_beVGy9GOJ-54" value="Następnie je zatwierdza" style="rounded=1;whiteSpace=wrap;html=1;" vertex="1" parent="1">
          <mxGeometry x="600" y="730" width="120" height="60" as="geometry" />
        </mxCell>
        <mxCell id="LnNG55XfxZ_beVGy9GOJ-59" value="" style="edgeStyle=orthogonalEdgeStyle;rounded=0;orthogonalLoop=1;jettySize=auto;html=1;" edge="1" parent="1" source="LnNG55XfxZ_beVGy9GOJ-55" target="LnNG55XfxZ_beVGy9GOJ-54">
          <mxGeometry relative="1" as="geometry" />
        </mxCell>
        <mxCell id="LnNG55XfxZ_beVGy9GOJ-55" value="Osoba z sekretariatu wprowadza podane dane" style="rounded=1;whiteSpace=wrap;html=1;" vertex="1" parent="1">
          <mxGeometry x="600" y="640" width="120" height="60" as="geometry" />
        </mxCell>
        <mxCell id="LnNG55XfxZ_beVGy9GOJ-58" value="" style="edgeStyle=orthogonalEdgeStyle;rounded=0;orthogonalLoop=1;jettySize=auto;html=1;" edge="1" parent="1" source="LnNG55XfxZ_beVGy9GOJ-56" target="LnNG55XfxZ_beVGy9GOJ-55">
          <mxGeometry relative="1" as="geometry" />
        </mxCell>
        <mxCell id="LnNG55XfxZ_beVGy9GOJ-56" value="System wyświetla okno z formularzem rejestracji uczestnika" style="rounded=1;whiteSpace=wrap;html=1;" vertex="1" parent="1">
          <mxGeometry x="600" y="555" width="120" height="60" as="geometry" />
        </mxCell>
        <mxCell id="LnNG55XfxZ_beVGy9GOJ-63" value="" style="edgeStyle=orthogonalEdgeStyle;rounded=0;orthogonalLoop=1;jettySize=auto;html=1;" edge="1" parent="1" source="LnNG55XfxZ_beVGy9GOJ-60" target="LnNG55XfxZ_beVGy9GOJ-62">
          <mxGeometry relative="1" as="geometry" />
        </mxCell>
        <mxCell id="LnNG55XfxZ_beVGy9GOJ-60" value="System zapisuje zmiany" style="rounded=1;whiteSpace=wrap;html=1;" vertex="1" parent="1">
          <mxGeometry x="600" y="820" width="120" height="60" as="geometry" />
        </mxCell>
        <mxCell id="LnNG55XfxZ_beVGy9GOJ-62" value="" style="shape=sumEllipse;perimeter=ellipsePerimeter;whiteSpace=wrap;html=1;backgroundOutline=1;" vertex="1" parent="1">
          <mxGeometry x="645" y="910" width="30" height="30" as="geometry" />
        </mxCell>
        <mxCell id="LnNG55XfxZ_beVGy9GOJ-64" value="FlowEnd1" style="text;html=1;align=center;verticalAlign=middle;resizable=0;points=[];autosize=1;strokeColor=none;fillColor=none;" vertex="1" parent="1">
          <mxGeometry x="690" y="910" width="80" height="30" as="geometry" />
        </mxCell>
        <mxCell id="LnNG55XfxZ_beVGy9GOJ-69" value="" style="edgeStyle=orthogonalEdgeStyle;rounded=0;orthogonalLoop=1;jettySize=auto;html=1;" edge="1" parent="1" source="LnNG55XfxZ_beVGy9GOJ-65" target="LnNG55XfxZ_beVGy9GOJ-67">
          <mxGeometry relative="1" as="geometry" />
        </mxCell>
        <mxCell id="LnNG55XfxZ_beVGy9GOJ-65" value="Osoba z sekretariatu wybiera opcję &quot;Usuń uczestnika&quot;" style="rounded=1;whiteSpace=wrap;html=1;" vertex="1" parent="1">
          <mxGeometry x="-30" y="465" width="120" height="60" as="geometry" />
        </mxCell>
        <mxCell id="LnNG55XfxZ_beVGy9GOJ-76" value="" style="edgeStyle=orthogonalEdgeStyle;rounded=0;orthogonalLoop=1;jettySize=auto;html=1;" edge="1" parent="1" source="LnNG55XfxZ_beVGy9GOJ-66" target="LnNG55XfxZ_beVGy9GOJ-75">
          <mxGeometry relative="1" as="geometry" />
        </mxCell>
        <mxCell id="LnNG55XfxZ_beVGy9GOJ-66" value="Osoba z sekretariatu wybiera opcję &quot;Potwierdź&quot; lub &quot;Anuluj&quot;" style="rounded=1;whiteSpace=wrap;html=1;" vertex="1" parent="1">
          <mxGeometry x="-30" y="830" width="120" height="60" as="geometry" />
        </mxCell>
        <mxCell id="LnNG55XfxZ_beVGy9GOJ-72" value="" style="edgeStyle=orthogonalEdgeStyle;rounded=0;orthogonalLoop=1;jettySize=auto;html=1;" edge="1" parent="1" source="LnNG55XfxZ_beVGy9GOJ-67" target="LnNG55XfxZ_beVGy9GOJ-71">
          <mxGeometry relative="1" as="geometry" />
        </mxCell>
        <mxCell id="LnNG55XfxZ_beVGy9GOJ-67" value="System wyświetla listę uczestników" style="rounded=1;whiteSpace=wrap;html=1;" vertex="1" parent="1">
          <mxGeometry x="-30" y="555" width="120" height="60" as="geometry" />
        </mxCell>
        <mxCell id="LnNG55XfxZ_beVGy9GOJ-74" value="" style="edgeStyle=orthogonalEdgeStyle;rounded=0;orthogonalLoop=1;jettySize=auto;html=1;" edge="1" parent="1" source="LnNG55XfxZ_beVGy9GOJ-70" target="LnNG55XfxZ_beVGy9GOJ-66">
          <mxGeometry relative="1" as="geometry" />
        </mxCell>
        <mxCell id="LnNG55XfxZ_beVGy9GOJ-70" value="System prosi o potwierdzenie operacji" style="rounded=1;whiteSpace=wrap;html=1;" vertex="1" parent="1">
          <mxGeometry x="-30" y="740" width="120" height="60" as="geometry" />
        </mxCell>
        <mxCell id="LnNG55XfxZ_beVGy9GOJ-73" value="" style="edgeStyle=orthogonalEdgeStyle;rounded=0;orthogonalLoop=1;jettySize=auto;html=1;" edge="1" parent="1" source="LnNG55XfxZ_beVGy9GOJ-71" target="LnNG55XfxZ_beVGy9GOJ-70">
          <mxGeometry relative="1" as="geometry" />
        </mxCell>
        <mxCell id="LnNG55XfxZ_beVGy9GOJ-71" value="Osoba z sekretariatu wybiera opcję &quot;Usuń&quot; przy danym uczestniku" style="rounded=1;whiteSpace=wrap;html=1;" vertex="1" parent="1">
          <mxGeometry x="-30" y="650" width="120" height="60" as="geometry" />
        </mxCell>
        <mxCell id="LnNG55XfxZ_beVGy9GOJ-75" value="" style="shape=sumEllipse;perimeter=ellipsePerimeter;whiteSpace=wrap;html=1;backgroundOutline=1;" vertex="1" parent="1">
          <mxGeometry x="15" y="920" width="30" height="30" as="geometry" />
        </mxCell>
        <mxCell id="LnNG55XfxZ_beVGy9GOJ-77" value="FlowEnd2" style="text;html=1;align=center;verticalAlign=middle;resizable=0;points=[];autosize=1;strokeColor=none;fillColor=none;" vertex="1" parent="1">
          <mxGeometry x="60" y="920" width="80" height="30" as="geometry" />
        </mxCell>
      </root>
    </mxGraphModel>
  </diagram>
</mxfile>
